<?xml version="1.0" encoding="UTF-8" standalone="no"?>
<svg
   class="MuiSvgIcon-root jss81"
   focusable="false"
   viewBox="0 0 24 24"
   aria-hidden="true"
   version="1.1"
   id="svg19"
   sodipodi:docname="icon-templates.svg"
   inkscape:version="1.1 (c68e22c387, 2021-05-23)"
   xmlns:inkscape="http://www.inkscape.org/namespaces/inkscape"
   xmlns:sodipodi="http://sodipodi.sourceforge.net/DTD/sodipodi-0.dtd"
   xmlns="http://www.w3.org/2000/svg"
   xmlns:svg="http://www.w3.org/2000/svg">
  <defs
     id="defs23" />
  <sodipodi:namedview
     id="namedview21"
     pagecolor="#ffffff"
     bordercolor="#666666"
     borderopacity="1.0"
     inkscape:pageshadow="2"
     inkscape:pageopacity="0.0"
     inkscape:pagecheckerboard="0"
     showgrid="false"
     inkscape:zoom="11.917696"
     inkscape:cx="21.186982"
     inkscape:cy="28.151416"
     inkscape:window-width="1920"
     inkscape:window-height="1017"
     inkscape:window-x="-8"
     inkscape:window-y="-8"
     inkscape:window-maximized="1"
     inkscape:current-layer="layer1" />
  <g
     inkscape:groupmode="layer"
     id="layer2"
     inkscape:label="Layer 2">
    <circle
       style="fill:#ffffff;fill-rule:evenodd;stroke-width:1.5;stroke:#00548f;stroke-opacity:1;fill-opacity:1;stroke-miterlimit:4;stroke-dasharray:none"
       id="path476"
       cx="12.088999"
       cy="12.059332"
       r="12"
       inkscape:export-filename="C:\Users\bema\Work\Projects\MUSE\Repos\muse-prototype\public\icons\Radar2.png"
       inkscape:export-xdpi="963.76001"
       inkscape:export-ydpi="963.76001" />
  </g>
  <g
     inkscape:groupmode="layer"
     id="layer1"
     inkscape:label="Layer 1">
    <path
       d="m 18.567241,5.4920921 -1.309732,1.3097325 c 1.337598,1.3468881 2.173598,3.2046644 2.173598,5.2575084 0,4.105687 -3.32542,7.431107 -7.431107,7.431107 -4.1056865,0 -7.4311067,-3.32542 -7.4311067,-7.431107 0,-3.7898649 2.8331094,-6.9109295 6.5022187,-7.3660848 V 6.5696025 C 8.4330688,7.015469 6.42667,9.3005343 6.42667,12.059333 c 0,3.074621 2.4987096,5.57333 5.57333,5.57333 3.074621,0 5.57333,-2.498709 5.57333,-5.57333 0,-1.541955 -0.622355,-2.9352875 -1.634843,-3.9384869 l -1.309733,1.3097325 c 0.6688,0.6780884 1.0868,1.6069774 1.0868,2.6287544 0,2.052844 -1.66271,3.715554 -3.715554,3.715554 -2.0528433,0 -3.7155534,-1.66271 -3.7155534,-3.715554 0,-1.727733 1.1889771,-3.1675096 2.7866654,-3.5855094 v 1.9878214 c -0.557334,0.325111 -0.928888,0.910311 -0.928888,1.597688 0,1.021777 0.835999,1.857776 1.857776,1.857776 1.021777,0 1.857776,-0.835999 1.857776,-1.857776 0,-0.687377 -0.371555,-1.281866 -0.928887,-1.597688 V 2.7704493 H 12 c -5.1274636,0 -9.2888833,4.1614197 -9.2888833,9.2888837 0,5.127464 4.1614197,9.288883 9.2888833,9.288883 5.127464,0 9.288883,-4.161419 9.288883,-9.288883 0,-2.5637323 -1.040354,-4.885953 -2.721642,-6.5672409 z"
       id="path17"
       style="fill:#00548f;fill-opacity:1;stroke-width:0.928889"
       inkscape:export-filename="C:\Users\bema\Work\Projects\MUSE\Repos\muse-prototype\public\icons\Radar2.png"
       inkscape:export-xdpi="963.76001"
       inkscape:export-ydpi="963.76001" />
    <circle
       style="fill:#00548f;fill-opacity:1;stroke:#00548f;stroke-width:1.5;stroke-miterlimit:4;stroke-dasharray:none;stroke-opacity:1"
       id="path2728"
       cx="43.926277"
       cy="44.681458"
       r="12.880007" />
    <circle
       style="fill:#000000;fill-opacity:1;stroke:none;stroke-width:2.17105;stroke-miterlimit:4;stroke-dasharray:none;stroke-opacity:1"
       id="path2834"
       cx="49.044712"
       cy="12.292644"
       r="2.3074932"
       inkscape:export-filename="C:\Users\bema\Work\Projects\MUSE\Repos\muse-prototype\public\icons\turbine.png"
       inkscape:export-xdpi="1070.3242"
       inkscape:export-ydpi="1070.3242" />
    <path
       style="fill:#000000;fill-opacity:1;stroke:none;stroke-width:1px;stroke-linecap:butt;stroke-linejoin:miter;stroke-opacity:1"
       d="m 49.002762,12.334599 c 0,0 -0.0049,-2.5571419 2.603794,-6.2515699 2.608696,-3.6944279 5.052888,-4.4677839 5.052888,-4.4677839 0,0 -4.33e-4,2.3638797 -2.485747,6.0585587 -2.485314,3.6946791 -5.170935,4.6607951 -5.170935,4.6607951 z"
       id="path3159"
       sodipodi:nodetypes="czczc"
       inkscape:export-filename="C:\Users\bema\Work\Projects\MUSE\Repos\muse-prototype\public\icons\turbine.png"
       inkscape:export-xdpi="1070.3242"
       inkscape:export-ydpi="1070.3242" />
    <path
       style="fill:#000000;fill-opacity:1;stroke:none;stroke-width:1px;stroke-linecap:butt;stroke-linejoin:miter;stroke-opacity:1"
       d="m 49.002762,12.334599 c 0,0 -2.263582,1.189619 -6.746344,0.590515 -4.482764,-0.599106 -6.300948,-2.406412 -6.300948,-2.406412 0,0 2.094806,-1.095314 6.520601,-0.6056514 4.425798,0.4896614 6.526691,2.4215484 6.526691,2.4215484 z"
       id="path3159-4"
       sodipodi:nodetypes="czczc"
       inkscape:export-filename="C:\Users\bema\Work\Projects\MUSE\Repos\muse-prototype\public\icons\turbine.png"
       inkscape:export-xdpi="1070.3242"
       inkscape:export-ydpi="1070.3242" />
    <path
       style="fill:#000000;fill-opacity:1;stroke:none;stroke-width:1px;stroke-linecap:butt;stroke-linejoin:miter;stroke-opacity:1"
       d="m 49.002762,12.334599 c 0,0 2.152329,1.380753 3.845278,5.574558 1.692948,4.193807 1.019372,6.667357 1.019372,6.667357 0,0 -1.986974,-1.280571 -3.746952,-5.370792 -1.75998,-4.090221 -1.117698,-6.871123 -1.117698,-6.871123 z"
       id="path3159-9"
       sodipodi:nodetypes="czczc"
       inkscape:export-filename="C:\Users\bema\Work\Projects\MUSE\Repos\muse-prototype\public\icons\turbine.png"
       inkscape:export-xdpi="1070.3242"
       inkscape:export-ydpi="1070.3242" />
  </g>
</svg>
